<mxfile host="app.diagrams.net" modified="2023-06-08T18:06:27.841Z" agent="Mozilla/5.0 (Windows NT 10.0; Win64; x64) AppleWebKit/537.36 (KHTML, like Gecko) Chrome/112.0.0.0 Safari/537.36 OPR/98.0.0.0" etag="Bu5pcb_KR09XJ7Q7xMkY" version="21.3.7" type="device">
  <diagram name="Страница-1" id="sdUZpMWSYJXm1RIvVRuR">
    <mxGraphModel dx="1817" dy="1633" grid="1" gridSize="10" guides="1" tooltips="1" connect="1" arrows="1" fold="1" page="1" pageScale="1" pageWidth="827" pageHeight="1169" math="0" shadow="0">
      <root>
        <mxCell id="0" />
        <mxCell id="1" parent="0" />
        <mxCell id="oVc4lL-X0MRbzAyfg5KV-24" value="Review" style="swimlane;fontStyle=0;childLayout=stackLayout;horizontal=1;startSize=30;horizontalStack=0;resizeParent=1;resizeParentMax=0;resizeLast=0;collapsible=1;marginBottom=0;whiteSpace=wrap;html=1;" parent="1" vertex="1">
          <mxGeometry x="657" y="-190" width="170" height="240" as="geometry" />
        </mxCell>
        <mxCell id="3V2Ck9-E916ixrjshscT-8" value="+ ID: int" style="text;strokeColor=none;fillColor=none;align=left;verticalAlign=middle;spacingLeft=4;spacingRight=4;overflow=hidden;points=[[0,0.5],[1,0.5]];portConstraint=eastwest;rotatable=0;whiteSpace=wrap;html=1;" vertex="1" parent="oVc4lL-X0MRbzAyfg5KV-24">
          <mxGeometry y="30" width="170" height="30" as="geometry" />
        </mxCell>
        <mxCell id="3V2Ck9-E916ixrjshscT-10" value="+ Username: string" style="text;html=1;strokeColor=none;fillColor=none;align=left;verticalAlign=middle;whiteSpace=wrap;rounded=0;" vertex="1" parent="oVc4lL-X0MRbzAyfg5KV-24">
          <mxGeometry y="60" width="170" height="30" as="geometry" />
        </mxCell>
        <mxCell id="3V2Ck9-E916ixrjshscT-9" value="+ ProfilePicURL: string" style="text;html=1;strokeColor=none;fillColor=none;align=left;verticalAlign=middle;whiteSpace=wrap;rounded=0;" vertex="1" parent="oVc4lL-X0MRbzAyfg5KV-24">
          <mxGeometry y="90" width="170" height="30" as="geometry" />
        </mxCell>
        <mxCell id="3V2Ck9-E916ixrjshscT-11" value="+ Rating: string" style="text;html=1;strokeColor=none;fillColor=none;align=left;verticalAlign=middle;whiteSpace=wrap;rounded=0;" vertex="1" parent="oVc4lL-X0MRbzAyfg5KV-24">
          <mxGeometry y="120" width="170" height="30" as="geometry" />
        </mxCell>
        <mxCell id="3V2Ck9-E916ixrjshscT-12" value="+ ReviewDesc: string" style="text;html=1;strokeColor=none;fillColor=none;align=left;verticalAlign=middle;whiteSpace=wrap;rounded=0;" vertex="1" parent="oVc4lL-X0MRbzAyfg5KV-24">
          <mxGeometry y="150" width="170" height="30" as="geometry" />
        </mxCell>
        <mxCell id="3V2Ck9-E916ixrjshscT-14" value="+ Game_ID: int" style="text;html=1;strokeColor=none;fillColor=none;align=left;verticalAlign=middle;whiteSpace=wrap;rounded=0;" vertex="1" parent="oVc4lL-X0MRbzAyfg5KV-24">
          <mxGeometry y="180" width="170" height="30" as="geometry" />
        </mxCell>
        <mxCell id="3V2Ck9-E916ixrjshscT-13" value="+ Console_ID: int" style="text;html=1;strokeColor=none;fillColor=none;align=left;verticalAlign=middle;whiteSpace=wrap;rounded=0;" vertex="1" parent="oVc4lL-X0MRbzAyfg5KV-24">
          <mxGeometry y="210" width="170" height="30" as="geometry" />
        </mxCell>
        <mxCell id="oVc4lL-X0MRbzAyfg5KV-42" value="&amp;lt;&amp;lt;enumeration&amp;gt;&amp;gt;&lt;br&gt;Genres" style="swimlane;fontStyle=0;childLayout=stackLayout;horizontal=1;startSize=30;horizontalStack=0;resizeParent=1;resizeParentMax=0;resizeLast=0;collapsible=1;marginBottom=0;whiteSpace=wrap;html=1;" parent="1" vertex="1">
          <mxGeometry x="920" y="-190" width="175" height="330" as="geometry" />
        </mxCell>
        <mxCell id="oVc4lL-X0MRbzAyfg5KV-43" value="Fantasy" style="text;strokeColor=none;fillColor=none;align=left;verticalAlign=middle;spacingLeft=4;spacingRight=4;overflow=hidden;points=[[0,0.5],[1,0.5]];portConstraint=eastwest;rotatable=0;whiteSpace=wrap;html=1;" parent="oVc4lL-X0MRbzAyfg5KV-42" vertex="1">
          <mxGeometry y="30" width="175" height="30" as="geometry" />
        </mxCell>
        <mxCell id="oVc4lL-X0MRbzAyfg5KV-44" value="Sci-Fi" style="text;strokeColor=none;fillColor=none;align=left;verticalAlign=middle;spacingLeft=4;spacingRight=4;overflow=hidden;points=[[0,0.5],[1,0.5]];portConstraint=eastwest;rotatable=0;whiteSpace=wrap;html=1;" parent="oVc4lL-X0MRbzAyfg5KV-42" vertex="1">
          <mxGeometry y="60" width="175" height="30" as="geometry" />
        </mxCell>
        <mxCell id="oVc4lL-X0MRbzAyfg5KV-48" value="History" style="text;html=1;strokeColor=none;fillColor=none;align=left;verticalAlign=middle;whiteSpace=wrap;rounded=0;" parent="oVc4lL-X0MRbzAyfg5KV-42" vertex="1">
          <mxGeometry y="90" width="175" height="30" as="geometry" />
        </mxCell>
        <mxCell id="oVc4lL-X0MRbzAyfg5KV-45" value="Horror" style="text;strokeColor=none;fillColor=none;align=left;verticalAlign=middle;spacingLeft=4;spacingRight=4;overflow=hidden;points=[[0,0.5],[1,0.5]];portConstraint=eastwest;rotatable=0;whiteSpace=wrap;html=1;" parent="oVc4lL-X0MRbzAyfg5KV-42" vertex="1">
          <mxGeometry y="120" width="175" height="30" as="geometry" />
        </mxCell>
        <mxCell id="oVc4lL-X0MRbzAyfg5KV-49" value="Action" style="text;html=1;strokeColor=none;fillColor=none;align=left;verticalAlign=middle;whiteSpace=wrap;rounded=0;" parent="oVc4lL-X0MRbzAyfg5KV-42" vertex="1">
          <mxGeometry y="150" width="175" height="30" as="geometry" />
        </mxCell>
        <mxCell id="oVc4lL-X0MRbzAyfg5KV-50" value="Strategy" style="text;html=1;strokeColor=none;fillColor=none;align=left;verticalAlign=middle;whiteSpace=wrap;rounded=0;" parent="oVc4lL-X0MRbzAyfg5KV-42" vertex="1">
          <mxGeometry y="180" width="175" height="30" as="geometry" />
        </mxCell>
        <mxCell id="oVc4lL-X0MRbzAyfg5KV-51" value="Sports" style="text;html=1;strokeColor=none;fillColor=none;align=left;verticalAlign=middle;whiteSpace=wrap;rounded=0;" parent="oVc4lL-X0MRbzAyfg5KV-42" vertex="1">
          <mxGeometry y="210" width="175" height="30" as="geometry" />
        </mxCell>
        <mxCell id="oVc4lL-X0MRbzAyfg5KV-52" value="MMO" style="text;html=1;strokeColor=none;fillColor=none;align=left;verticalAlign=middle;whiteSpace=wrap;rounded=0;" parent="oVc4lL-X0MRbzAyfg5KV-42" vertex="1">
          <mxGeometry y="240" width="175" height="30" as="geometry" />
        </mxCell>
        <mxCell id="oVc4lL-X0MRbzAyfg5KV-53" value="RPG" style="text;html=1;strokeColor=none;fillColor=none;align=left;verticalAlign=middle;whiteSpace=wrap;rounded=0;" parent="oVc4lL-X0MRbzAyfg5KV-42" vertex="1">
          <mxGeometry y="270" width="175" height="30" as="geometry" />
        </mxCell>
        <mxCell id="oVc4lL-X0MRbzAyfg5KV-54" value="FPS" style="text;html=1;strokeColor=none;fillColor=none;align=left;verticalAlign=middle;whiteSpace=wrap;rounded=0;" parent="oVc4lL-X0MRbzAyfg5KV-42" vertex="1">
          <mxGeometry y="300" width="175" height="30" as="geometry" />
        </mxCell>
        <mxCell id="2BUGq4Oyd12aA57rfhNJ-14" value="" style="endArrow=none;dashed=1;html=1;rounded=0;entryX=1;entryY=0;entryDx=0;entryDy=0;exitX=0.5;exitY=1;exitDx=0;exitDy=0;" parent="1" source="oVc4lL-X0MRbzAyfg5KV-54" edge="1">
          <mxGeometry width="50" height="50" relative="1" as="geometry">
            <mxPoint x="1060" y="358.99" as="sourcePoint" />
            <mxPoint x="827" y="359" as="targetPoint" />
            <Array as="points">
              <mxPoint x="1008" y="359" />
            </Array>
          </mxGeometry>
        </mxCell>
        <mxCell id="2BUGq4Oyd12aA57rfhNJ-15" value="" style="endArrow=classic;html=1;rounded=0;entryX=1;entryY=0;entryDx=0;entryDy=0;" parent="1" edge="1">
          <mxGeometry width="50" height="50" relative="1" as="geometry">
            <mxPoint x="830" y="360" as="sourcePoint" />
            <mxPoint x="827" y="360" as="targetPoint" />
          </mxGeometry>
        </mxCell>
        <mxCell id="W9ddNsVazHNU-D0-kvZH-1" value="" style="endArrow=classic;html=1;rounded=0;exitX=0.5;exitY=1;exitDx=0;exitDy=0;" parent="1" source="3V2Ck9-E916ixrjshscT-13" edge="1">
          <mxGeometry width="50" height="50" relative="1" as="geometry">
            <mxPoint x="740" y="80" as="sourcePoint" />
            <mxPoint x="742" y="170" as="targetPoint" />
          </mxGeometry>
        </mxCell>
        <mxCell id="l7rKiUxw1o1yOhBb_WyF-1" value="Console" style="swimlane;fontStyle=0;childLayout=stackLayout;horizontal=1;startSize=30;horizontalStack=0;resizeParent=1;resizeParentMax=0;resizeLast=0;collapsible=1;marginBottom=0;whiteSpace=wrap;html=1;" parent="1" vertex="1">
          <mxGeometry x="660" y="630" width="170" height="180" as="geometry" />
        </mxCell>
        <mxCell id="l7rKiUxw1o1yOhBb_WyF-7" value="+ ID: string" style="text;html=1;strokeColor=none;fillColor=none;align=left;verticalAlign=middle;whiteSpace=wrap;rounded=0;" parent="l7rKiUxw1o1yOhBb_WyF-1" vertex="1">
          <mxGeometry y="30" width="170" height="30" as="geometry" />
        </mxCell>
        <mxCell id="E4WLvE4NygGlio2BXlrx-3" value="+ Model: string" style="text;html=1;strokeColor=none;fillColor=none;align=left;verticalAlign=middle;whiteSpace=wrap;rounded=0;" parent="l7rKiUxw1o1yOhBb_WyF-1" vertex="1">
          <mxGeometry y="60" width="170" height="30" as="geometry" />
        </mxCell>
        <mxCell id="E4WLvE4NygGlio2BXlrx-5" value="+ Manufacturer: string" style="text;html=1;align=left;verticalAlign=middle;resizable=0;points=[];autosize=1;strokeColor=none;fillColor=none;" parent="l7rKiUxw1o1yOhBb_WyF-1" vertex="1">
          <mxGeometry y="90" width="170" height="30" as="geometry" />
        </mxCell>
        <mxCell id="E4WLvE4NygGlio2BXlrx-6" value="+ Release_Date: DateTime" style="text;html=1;strokeColor=none;fillColor=none;align=left;verticalAlign=middle;whiteSpace=wrap;rounded=0;" parent="l7rKiUxw1o1yOhBb_WyF-1" vertex="1">
          <mxGeometry y="120" width="170" height="30" as="geometry" />
        </mxCell>
        <mxCell id="E4WLvE4NygGlio2BXlrx-7" value="+ URL_Console: string" style="text;html=1;strokeColor=none;fillColor=none;align=left;verticalAlign=middle;whiteSpace=wrap;rounded=0;" parent="l7rKiUxw1o1yOhBb_WyF-1" vertex="1">
          <mxGeometry y="150" width="170" height="30" as="geometry" />
        </mxCell>
        <mxCell id="3V2Ck9-E916ixrjshscT-32" value="" style="edgeStyle=orthogonalEdgeStyle;rounded=0;orthogonalLoop=1;jettySize=auto;html=1;" edge="1" parent="1" source="si3ed06ZD6JGQciLyGwY-8" target="3V2Ck9-E916ixrjshscT-29">
          <mxGeometry relative="1" as="geometry" />
        </mxCell>
        <mxCell id="si3ed06ZD6JGQciLyGwY-8" value="Account" style="swimlane;fontStyle=0;childLayout=stackLayout;horizontal=1;startSize=30;horizontalStack=0;resizeParent=1;resizeParentMax=0;resizeLast=0;collapsible=1;marginBottom=0;whiteSpace=wrap;html=1;" parent="1" vertex="1">
          <mxGeometry x="1170" y="560" width="170" height="210" as="geometry" />
        </mxCell>
        <mxCell id="si3ed06ZD6JGQciLyGwY-11" value="+ ID: int" style="text;strokeColor=none;fillColor=none;align=left;verticalAlign=middle;spacingLeft=4;spacingRight=4;overflow=hidden;points=[[0,0.5],[1,0.5]];portConstraint=eastwest;rotatable=0;whiteSpace=wrap;html=1;" parent="si3ed06ZD6JGQciLyGwY-8" vertex="1">
          <mxGeometry y="30" width="170" height="30" as="geometry" />
        </mxCell>
        <mxCell id="3V2Ck9-E916ixrjshscT-1" value="+ ProfilePicURL: string" style="text;html=1;strokeColor=none;fillColor=none;align=left;verticalAlign=middle;whiteSpace=wrap;rounded=0;" vertex="1" parent="si3ed06ZD6JGQciLyGwY-8">
          <mxGeometry y="60" width="170" height="30" as="geometry" />
        </mxCell>
        <mxCell id="3V2Ck9-E916ixrjshscT-2" value="+ Salt: string" style="text;html=1;strokeColor=none;fillColor=none;align=left;verticalAlign=middle;whiteSpace=wrap;rounded=0;" vertex="1" parent="si3ed06ZD6JGQciLyGwY-8">
          <mxGeometry y="90" width="170" height="30" as="geometry" />
        </mxCell>
        <mxCell id="3V2Ck9-E916ixrjshscT-3" value="+ Username: string" style="text;html=1;strokeColor=none;fillColor=none;align=left;verticalAlign=middle;whiteSpace=wrap;rounded=0;" vertex="1" parent="si3ed06ZD6JGQciLyGwY-8">
          <mxGeometry y="120" width="170" height="30" as="geometry" />
        </mxCell>
        <mxCell id="3V2Ck9-E916ixrjshscT-4" value="+ Email: string" style="text;html=1;strokeColor=none;fillColor=none;align=left;verticalAlign=middle;whiteSpace=wrap;rounded=0;" vertex="1" parent="si3ed06ZD6JGQciLyGwY-8">
          <mxGeometry y="150" width="170" height="30" as="geometry" />
        </mxCell>
        <mxCell id="3V2Ck9-E916ixrjshscT-5" value="+ Password: string" style="text;html=1;strokeColor=none;fillColor=none;align=left;verticalAlign=middle;whiteSpace=wrap;rounded=0;" vertex="1" parent="si3ed06ZD6JGQciLyGwY-8">
          <mxGeometry y="180" width="170" height="30" as="geometry" />
        </mxCell>
        <mxCell id="E4WLvE4NygGlio2BXlrx-1" value="" style="endArrow=classic;html=1;rounded=0;exitX=0.5;exitY=1;exitDx=0;exitDy=0;entryX=0.5;entryY=0;entryDx=0;entryDy=0;" parent="1" source="3V2Ck9-E916ixrjshscT-7" edge="1" target="l7rKiUxw1o1yOhBb_WyF-1">
          <mxGeometry width="50" height="50" relative="1" as="geometry">
            <mxPoint x="744" y="470" as="sourcePoint" />
            <mxPoint x="745" y="580" as="targetPoint" />
          </mxGeometry>
        </mxCell>
        <mxCell id="cbTE5aQ3FgaVGhqSNgmj-36" value="Game" style="swimlane;fontStyle=0;childLayout=stackLayout;horizontal=1;startSize=30;horizontalStack=0;resizeParent=1;resizeParentMax=0;resizeLast=0;collapsible=1;marginBottom=0;whiteSpace=wrap;html=1;" parent="1" vertex="1">
          <mxGeometry x="660" y="170" width="170" height="360" as="geometry" />
        </mxCell>
        <mxCell id="cbTE5aQ3FgaVGhqSNgmj-37" value="+ ID: int" style="text;html=1;strokeColor=none;fillColor=none;align=left;verticalAlign=middle;whiteSpace=wrap;rounded=0;" parent="cbTE5aQ3FgaVGhqSNgmj-36" vertex="1">
          <mxGeometry y="30" width="170" height="30" as="geometry" />
        </mxCell>
        <mxCell id="cbTE5aQ3FgaVGhqSNgmj-38" value="+ Name: string" style="text;html=1;strokeColor=none;fillColor=none;align=left;verticalAlign=middle;whiteSpace=wrap;rounded=0;" parent="cbTE5aQ3FgaVGhqSNgmj-36" vertex="1">
          <mxGeometry y="60" width="170" height="30" as="geometry" />
        </mxCell>
        <mxCell id="cbTE5aQ3FgaVGhqSNgmj-39" value="+ Developer: string" style="text;html=1;strokeColor=none;fillColor=none;align=left;verticalAlign=middle;whiteSpace=wrap;rounded=0;" parent="cbTE5aQ3FgaVGhqSNgmj-36" vertex="1">
          <mxGeometry y="90" width="170" height="30" as="geometry" />
        </mxCell>
        <mxCell id="cbTE5aQ3FgaVGhqSNgmj-40" value="+ Release_Date: DateTime" style="text;html=1;strokeColor=none;fillColor=none;align=left;verticalAlign=middle;whiteSpace=wrap;rounded=0;" parent="cbTE5aQ3FgaVGhqSNgmj-36" vertex="1">
          <mxGeometry y="120" width="170" height="30" as="geometry" />
        </mxCell>
        <mxCell id="cbTE5aQ3FgaVGhqSNgmj-41" value="+ Genre: string" style="text;html=1;strokeColor=none;fillColor=none;align=left;verticalAlign=middle;whiteSpace=wrap;rounded=0;" parent="cbTE5aQ3FgaVGhqSNgmj-36" vertex="1">
          <mxGeometry y="150" width="170" height="30" as="geometry" />
        </mxCell>
        <mxCell id="cbTE5aQ3FgaVGhqSNgmj-42" value="+ Rating: double" style="text;html=1;strokeColor=none;fillColor=none;align=left;verticalAlign=middle;whiteSpace=wrap;rounded=0;" parent="cbTE5aQ3FgaVGhqSNgmj-36" vertex="1">
          <mxGeometry y="180" width="170" height="30" as="geometry" />
        </mxCell>
        <mxCell id="cbTE5aQ3FgaVGhqSNgmj-43" value="+ Description: string" style="text;html=1;strokeColor=none;fillColor=none;align=left;verticalAlign=middle;whiteSpace=wrap;rounded=0;" parent="cbTE5aQ3FgaVGhqSNgmj-36" vertex="1">
          <mxGeometry y="210" width="170" height="30" as="geometry" />
        </mxCell>
        <mxCell id="cbTE5aQ3FgaVGhqSNgmj-44" value="+ URL_Game: string" style="text;html=1;strokeColor=none;fillColor=none;align=left;verticalAlign=middle;whiteSpace=wrap;rounded=0;" parent="cbTE5aQ3FgaVGhqSNgmj-36" vertex="1">
          <mxGeometry y="240" width="170" height="30" as="geometry" />
        </mxCell>
        <mxCell id="cbTE5aQ3FgaVGhqSNgmj-45" value="+ URL_Page: string" style="text;html=1;strokeColor=none;fillColor=none;align=left;verticalAlign=middle;whiteSpace=wrap;rounded=0;" parent="cbTE5aQ3FgaVGhqSNgmj-36" vertex="1">
          <mxGeometry y="270" width="170" height="30" as="geometry" />
        </mxCell>
        <mxCell id="3V2Ck9-E916ixrjshscT-6" value="+ Console_ID: int" style="text;html=1;strokeColor=none;fillColor=none;align=left;verticalAlign=middle;whiteSpace=wrap;rounded=0;" vertex="1" parent="cbTE5aQ3FgaVGhqSNgmj-36">
          <mxGeometry y="300" width="170" height="30" as="geometry" />
        </mxCell>
        <mxCell id="3V2Ck9-E916ixrjshscT-7" value="+ Reviews: int" style="text;html=1;strokeColor=none;fillColor=none;align=left;verticalAlign=middle;whiteSpace=wrap;rounded=0;" vertex="1" parent="cbTE5aQ3FgaVGhqSNgmj-36">
          <mxGeometry y="330" width="170" height="30" as="geometry" />
        </mxCell>
        <mxCell id="3V2Ck9-E916ixrjshscT-15" value="Contact" style="swimlane;fontStyle=0;childLayout=stackLayout;horizontal=1;startSize=30;horizontalStack=0;resizeParent=1;resizeParentMax=0;resizeLast=0;collapsible=1;marginBottom=0;whiteSpace=wrap;html=1;" vertex="1" parent="1">
          <mxGeometry x="920" y="600" width="170" height="150" as="geometry" />
        </mxCell>
        <mxCell id="3V2Ck9-E916ixrjshscT-19" value="+ Name: string" style="text;html=1;strokeColor=none;fillColor=none;align=left;verticalAlign=middle;whiteSpace=wrap;rounded=0;" vertex="1" parent="3V2Ck9-E916ixrjshscT-15">
          <mxGeometry y="30" width="170" height="30" as="geometry" />
        </mxCell>
        <mxCell id="3V2Ck9-E916ixrjshscT-20" value="+ Email: string" style="text;html=1;strokeColor=none;fillColor=none;align=left;verticalAlign=middle;whiteSpace=wrap;rounded=0;" vertex="1" parent="3V2Ck9-E916ixrjshscT-15">
          <mxGeometry y="60" width="170" height="30" as="geometry" />
        </mxCell>
        <mxCell id="3V2Ck9-E916ixrjshscT-18" value="+ Country: string" style="text;html=1;strokeColor=none;fillColor=none;align=left;verticalAlign=middle;whiteSpace=wrap;rounded=0;" vertex="1" parent="3V2Ck9-E916ixrjshscT-15">
          <mxGeometry y="90" width="170" height="30" as="geometry" />
        </mxCell>
        <mxCell id="3V2Ck9-E916ixrjshscT-21" value="+ Subject: string" style="text;html=1;strokeColor=none;fillColor=none;align=left;verticalAlign=middle;whiteSpace=wrap;rounded=0;" vertex="1" parent="3V2Ck9-E916ixrjshscT-15">
          <mxGeometry y="120" width="170" height="30" as="geometry" />
        </mxCell>
        <mxCell id="3V2Ck9-E916ixrjshscT-22" value="Filter" style="swimlane;fontStyle=0;childLayout=stackLayout;horizontal=1;startSize=30;horizontalStack=0;resizeParent=1;resizeParentMax=0;resizeLast=0;collapsible=1;marginBottom=0;whiteSpace=wrap;html=1;" vertex="1" parent="1">
          <mxGeometry x="920" y="440" width="170" height="120" as="geometry" />
        </mxCell>
        <mxCell id="3V2Ck9-E916ixrjshscT-23" value="+ Keyword: string" style="text;html=1;strokeColor=none;fillColor=none;align=left;verticalAlign=middle;whiteSpace=wrap;rounded=0;" vertex="1" parent="3V2Ck9-E916ixrjshscT-22">
          <mxGeometry y="30" width="170" height="30" as="geometry" />
        </mxCell>
        <mxCell id="3V2Ck9-E916ixrjshscT-24" value="+ MainFilter: string" style="text;html=1;strokeColor=none;fillColor=none;align=left;verticalAlign=middle;whiteSpace=wrap;rounded=0;" vertex="1" parent="3V2Ck9-E916ixrjshscT-22">
          <mxGeometry y="60" width="170" height="30" as="geometry" />
        </mxCell>
        <mxCell id="3V2Ck9-E916ixrjshscT-25" value="+ GenreFilter: string" style="text;html=1;strokeColor=none;fillColor=none;align=left;verticalAlign=middle;whiteSpace=wrap;rounded=0;" vertex="1" parent="3V2Ck9-E916ixrjshscT-22">
          <mxGeometry y="90" width="170" height="30" as="geometry" />
        </mxCell>
        <mxCell id="3V2Ck9-E916ixrjshscT-27" value="LogIn" style="swimlane;fontStyle=0;childLayout=stackLayout;horizontal=1;startSize=30;horizontalStack=0;resizeParent=1;resizeParentMax=0;resizeLast=0;collapsible=1;marginBottom=0;whiteSpace=wrap;html=1;" vertex="1" parent="1">
          <mxGeometry x="1170" y="430" width="170" height="90" as="geometry" />
        </mxCell>
        <mxCell id="3V2Ck9-E916ixrjshscT-28" value="+ Email: string" style="text;html=1;strokeColor=none;fillColor=none;align=left;verticalAlign=middle;whiteSpace=wrap;rounded=0;" vertex="1" parent="3V2Ck9-E916ixrjshscT-27">
          <mxGeometry y="30" width="170" height="30" as="geometry" />
        </mxCell>
        <mxCell id="3V2Ck9-E916ixrjshscT-29" value="+ Password: string" style="text;html=1;strokeColor=none;fillColor=none;align=left;verticalAlign=middle;whiteSpace=wrap;rounded=0;" vertex="1" parent="3V2Ck9-E916ixrjshscT-27">
          <mxGeometry y="60" width="170" height="30" as="geometry" />
        </mxCell>
        <mxCell id="3V2Ck9-E916ixrjshscT-37" value="&amp;lt;&amp;lt;interface&amp;gt;&amp;gt;&lt;br&gt;IFilterStrategy" style="swimlane;fontStyle=0;childLayout=stackLayout;horizontal=1;startSize=30;horizontalStack=0;resizeParent=1;resizeParentMax=0;resizeLast=0;collapsible=1;marginBottom=0;whiteSpace=wrap;html=1;" vertex="1" parent="1">
          <mxGeometry x="24" y="485" width="200" height="130" as="geometry" />
        </mxCell>
        <mxCell id="3V2Ck9-E916ixrjshscT-38" value="+ ShouldApply (keyword: string, mainFilter: string, genre: string): bool" style="text;html=1;strokeColor=none;fillColor=none;align=left;verticalAlign=middle;whiteSpace=wrap;rounded=0;" vertex="1" parent="3V2Ck9-E916ixrjshscT-37">
          <mxGeometry y="30" width="200" height="50" as="geometry" />
        </mxCell>
        <mxCell id="3V2Ck9-E916ixrjshscT-39" value="+ ApplyFilter(keyword: string, mainFilter: string, genre: string, games: List&amp;lt;Game&amp;gt;):&amp;nbsp;List&amp;lt;Game&amp;gt;" style="text;html=1;strokeColor=none;fillColor=none;align=left;verticalAlign=middle;whiteSpace=wrap;rounded=0;" vertex="1" parent="3V2Ck9-E916ixrjshscT-37">
          <mxGeometry y="80" width="200" height="50" as="geometry" />
        </mxCell>
        <mxCell id="3V2Ck9-E916ixrjshscT-43" value="FilterBy_All_Strategy" style="swimlane;fontStyle=0;childLayout=stackLayout;horizontal=1;startSize=30;horizontalStack=0;resizeParent=1;resizeParentMax=0;resizeLast=0;collapsible=1;marginBottom=0;whiteSpace=wrap;html=1;" vertex="1" parent="1">
          <mxGeometry x="4" y="285" width="240" height="130" as="geometry" />
        </mxCell>
        <mxCell id="3V2Ck9-E916ixrjshscT-44" value="+ ShouldApply (keyword: string, mainFilter: string, genre: string): bool" style="text;html=1;strokeColor=none;fillColor=none;align=left;verticalAlign=middle;whiteSpace=wrap;rounded=0;" vertex="1" parent="3V2Ck9-E916ixrjshscT-43">
          <mxGeometry y="30" width="240" height="50" as="geometry" />
        </mxCell>
        <mxCell id="3V2Ck9-E916ixrjshscT-45" value="+ ApplyFilter(keyword: string, mainFilter: string, genre: string, games: List&amp;lt;Game&amp;gt;):&amp;nbsp;List&amp;lt;Game&amp;gt;" style="text;html=1;strokeColor=none;fillColor=none;align=left;verticalAlign=middle;whiteSpace=wrap;rounded=0;" vertex="1" parent="3V2Ck9-E916ixrjshscT-43">
          <mxGeometry y="80" width="240" height="50" as="geometry" />
        </mxCell>
        <mxCell id="3V2Ck9-E916ixrjshscT-46" value="FilterBy_Genre_Strategy" style="swimlane;fontStyle=0;childLayout=stackLayout;horizontal=1;startSize=30;horizontalStack=0;resizeParent=1;resizeParentMax=0;resizeLast=0;collapsible=1;marginBottom=0;whiteSpace=wrap;html=1;" vertex="1" parent="1">
          <mxGeometry x="-280" y="285" width="240" height="130" as="geometry" />
        </mxCell>
        <mxCell id="3V2Ck9-E916ixrjshscT-47" value="+ ShouldApply (keyword: string, mainFilter: string, genre: string): bool" style="text;html=1;strokeColor=none;fillColor=none;align=left;verticalAlign=middle;whiteSpace=wrap;rounded=0;" vertex="1" parent="3V2Ck9-E916ixrjshscT-46">
          <mxGeometry y="30" width="240" height="50" as="geometry" />
        </mxCell>
        <mxCell id="3V2Ck9-E916ixrjshscT-48" value="+ ApplyFilter(keyword: string, mainFilter: string, genre: string, games: List&amp;lt;Game&amp;gt;):&amp;nbsp;List&amp;lt;Game&amp;gt;" style="text;html=1;strokeColor=none;fillColor=none;align=left;verticalAlign=middle;whiteSpace=wrap;rounded=0;" vertex="1" parent="3V2Ck9-E916ixrjshscT-46">
          <mxGeometry y="80" width="240" height="50" as="geometry" />
        </mxCell>
        <mxCell id="3V2Ck9-E916ixrjshscT-49" value="FilterBy_Keyword_Strategy" style="swimlane;fontStyle=0;childLayout=stackLayout;horizontal=1;startSize=30;horizontalStack=0;resizeParent=1;resizeParentMax=0;resizeLast=0;collapsible=1;marginBottom=0;whiteSpace=wrap;html=1;" vertex="1" parent="1">
          <mxGeometry x="-280" y="485" width="240" height="130" as="geometry" />
        </mxCell>
        <mxCell id="3V2Ck9-E916ixrjshscT-50" value="+ ShouldApply (keyword: string, mainFilter: string, genre: string): bool" style="text;html=1;strokeColor=none;fillColor=none;align=left;verticalAlign=middle;whiteSpace=wrap;rounded=0;" vertex="1" parent="3V2Ck9-E916ixrjshscT-49">
          <mxGeometry y="30" width="240" height="50" as="geometry" />
        </mxCell>
        <mxCell id="3V2Ck9-E916ixrjshscT-51" value="+ ApplyFilter(keyword: string, mainFilter: string, genre: string, games: List&amp;lt;Game&amp;gt;):&amp;nbsp;List&amp;lt;Game&amp;gt;" style="text;html=1;strokeColor=none;fillColor=none;align=left;verticalAlign=middle;whiteSpace=wrap;rounded=0;" vertex="1" parent="3V2Ck9-E916ixrjshscT-49">
          <mxGeometry y="80" width="240" height="50" as="geometry" />
        </mxCell>
        <mxCell id="3V2Ck9-E916ixrjshscT-52" value="FilterBy_KeywordAndGenre_Strategy" style="swimlane;fontStyle=0;childLayout=stackLayout;horizontal=1;startSize=30;horizontalStack=0;resizeParent=1;resizeParentMax=0;resizeLast=0;collapsible=1;marginBottom=0;whiteSpace=wrap;html=1;" vertex="1" parent="1">
          <mxGeometry x="-170" y="680" width="240" height="130" as="geometry" />
        </mxCell>
        <mxCell id="3V2Ck9-E916ixrjshscT-53" value="+ ShouldApply (keyword: string, mainFilter: string, genre: string): bool" style="text;html=1;strokeColor=none;fillColor=none;align=left;verticalAlign=middle;whiteSpace=wrap;rounded=0;" vertex="1" parent="3V2Ck9-E916ixrjshscT-52">
          <mxGeometry y="30" width="240" height="50" as="geometry" />
        </mxCell>
        <mxCell id="3V2Ck9-E916ixrjshscT-54" value="+ ApplyFilter(keyword: string, mainFilter: string, genre: string, games: List&amp;lt;Game&amp;gt;):&amp;nbsp;List&amp;lt;Game&amp;gt;" style="text;html=1;strokeColor=none;fillColor=none;align=left;verticalAlign=middle;whiteSpace=wrap;rounded=0;" vertex="1" parent="3V2Ck9-E916ixrjshscT-52">
          <mxGeometry y="80" width="240" height="50" as="geometry" />
        </mxCell>
        <mxCell id="3V2Ck9-E916ixrjshscT-55" value="FilterBy_KeywordAndMainFilter_Strategy" style="swimlane;fontStyle=0;childLayout=stackLayout;horizontal=1;startSize=30;horizontalStack=0;resizeParent=1;resizeParentMax=0;resizeLast=0;collapsible=1;marginBottom=0;whiteSpace=wrap;html=1;" vertex="1" parent="1">
          <mxGeometry x="170" y="680" width="240" height="130" as="geometry" />
        </mxCell>
        <mxCell id="3V2Ck9-E916ixrjshscT-56" value="+ ShouldApply (keyword: string, mainFilter: string, genre: string): bool" style="text;html=1;strokeColor=none;fillColor=none;align=left;verticalAlign=middle;whiteSpace=wrap;rounded=0;" vertex="1" parent="3V2Ck9-E916ixrjshscT-55">
          <mxGeometry y="30" width="240" height="50" as="geometry" />
        </mxCell>
        <mxCell id="3V2Ck9-E916ixrjshscT-57" value="+ ApplyFilter(keyword: string, mainFilter: string, genre: string, games: List&amp;lt;Game&amp;gt;):&amp;nbsp;List&amp;lt;Game&amp;gt;" style="text;html=1;strokeColor=none;fillColor=none;align=left;verticalAlign=middle;whiteSpace=wrap;rounded=0;" vertex="1" parent="3V2Ck9-E916ixrjshscT-55">
          <mxGeometry y="80" width="240" height="50" as="geometry" />
        </mxCell>
        <mxCell id="3V2Ck9-E916ixrjshscT-58" value="FilterBy_MainFilter_Strategy" style="swimlane;fontStyle=0;childLayout=stackLayout;horizontal=1;startSize=30;horizontalStack=0;resizeParent=1;resizeParentMax=0;resizeLast=0;collapsible=1;marginBottom=0;whiteSpace=wrap;html=1;" vertex="1" parent="1">
          <mxGeometry x="284" y="485" width="236" height="130" as="geometry" />
        </mxCell>
        <mxCell id="3V2Ck9-E916ixrjshscT-59" value="+ ShouldApply (keyword: string, mainFilter: string, genre: string): bool" style="text;html=1;strokeColor=none;fillColor=none;align=left;verticalAlign=middle;whiteSpace=wrap;rounded=0;" vertex="1" parent="3V2Ck9-E916ixrjshscT-58">
          <mxGeometry y="30" width="236" height="50" as="geometry" />
        </mxCell>
        <mxCell id="3V2Ck9-E916ixrjshscT-60" value="+ ApplyFilter(keyword: string, mainFilter: string, genre: string, games: List&amp;lt;Game&amp;gt;):&amp;nbsp;List&amp;lt;Game&amp;gt;" style="text;html=1;strokeColor=none;fillColor=none;align=left;verticalAlign=middle;whiteSpace=wrap;rounded=0;" vertex="1" parent="3V2Ck9-E916ixrjshscT-58">
          <mxGeometry y="80" width="236" height="50" as="geometry" />
        </mxCell>
        <mxCell id="3V2Ck9-E916ixrjshscT-61" value="FilterBy_MainFilterAndGenre_Strategy" style="swimlane;fontStyle=0;childLayout=stackLayout;horizontal=1;startSize=30;horizontalStack=0;resizeParent=1;resizeParentMax=0;resizeLast=0;collapsible=1;marginBottom=0;whiteSpace=wrap;html=1;" vertex="1" parent="1">
          <mxGeometry x="284" y="285" width="240" height="130" as="geometry" />
        </mxCell>
        <mxCell id="3V2Ck9-E916ixrjshscT-62" value="+ ShouldApply (keyword: string, mainFilter: string, genre: string): bool" style="text;html=1;strokeColor=none;fillColor=none;align=left;verticalAlign=middle;whiteSpace=wrap;rounded=0;" vertex="1" parent="3V2Ck9-E916ixrjshscT-61">
          <mxGeometry y="30" width="240" height="50" as="geometry" />
        </mxCell>
        <mxCell id="3V2Ck9-E916ixrjshscT-63" value="+ ApplyFilter(keyword: string, mainFilter: string, genre: string, games: List&amp;lt;Game&amp;gt;):&amp;nbsp;List&amp;lt;Game&amp;gt;" style="text;html=1;strokeColor=none;fillColor=none;align=left;verticalAlign=middle;whiteSpace=wrap;rounded=0;" vertex="1" parent="3V2Ck9-E916ixrjshscT-61">
          <mxGeometry y="80" width="240" height="50" as="geometry" />
        </mxCell>
        <mxCell id="3V2Ck9-E916ixrjshscT-71" value="" style="endArrow=block;startArrow=none;endFill=0;startFill=0;endSize=8;html=1;verticalAlign=bottom;dashed=1;labelBackgroundColor=none;rounded=0;exitX=0.5;exitY=0;exitDx=0;exitDy=0;entryX=0.5;entryY=1;entryDx=0;entryDy=0;" edge="1" parent="1" source="3V2Ck9-E916ixrjshscT-52" target="3V2Ck9-E916ixrjshscT-39">
          <mxGeometry width="160" relative="1" as="geometry">
            <mxPoint x="290" y="555" as="sourcePoint" />
            <mxPoint x="450" y="555" as="targetPoint" />
            <Array as="points">
              <mxPoint x="-50" y="655" />
              <mxPoint x="124" y="655" />
            </Array>
          </mxGeometry>
        </mxCell>
        <mxCell id="3V2Ck9-E916ixrjshscT-72" value="" style="endArrow=block;startArrow=none;endFill=0;startFill=0;endSize=8;html=1;verticalAlign=bottom;dashed=1;labelBackgroundColor=none;rounded=0;exitX=0.5;exitY=0;exitDx=0;exitDy=0;entryX=0.5;entryY=1;entryDx=0;entryDy=0;" edge="1" parent="1" source="3V2Ck9-E916ixrjshscT-55" target="3V2Ck9-E916ixrjshscT-39">
          <mxGeometry width="160" relative="1" as="geometry">
            <mxPoint x="-40" y="690" as="sourcePoint" />
            <mxPoint x="134" y="625" as="targetPoint" />
            <Array as="points">
              <mxPoint x="290" y="655" />
              <mxPoint x="124" y="655" />
            </Array>
          </mxGeometry>
        </mxCell>
        <mxCell id="3V2Ck9-E916ixrjshscT-73" value="" style="endArrow=block;startArrow=none;endFill=0;startFill=0;endSize=8;html=1;verticalAlign=bottom;dashed=1;labelBackgroundColor=none;rounded=0;exitX=1;exitY=1;exitDx=0;exitDy=0;entryX=0;entryY=0;entryDx=0;entryDy=0;" edge="1" parent="1" source="3V2Ck9-E916ixrjshscT-50" target="3V2Ck9-E916ixrjshscT-39">
          <mxGeometry width="160" relative="1" as="geometry">
            <mxPoint x="290" y="555" as="sourcePoint" />
            <mxPoint x="450" y="555" as="targetPoint" />
          </mxGeometry>
        </mxCell>
        <mxCell id="3V2Ck9-E916ixrjshscT-74" value="" style="endArrow=block;startArrow=none;endFill=0;startFill=0;endSize=8;html=1;verticalAlign=bottom;dashed=1;labelBackgroundColor=none;rounded=0;entryX=1;entryY=0;entryDx=0;entryDy=0;exitX=0;exitY=1;exitDx=0;exitDy=0;" edge="1" parent="1" source="3V2Ck9-E916ixrjshscT-59" target="3V2Ck9-E916ixrjshscT-39">
          <mxGeometry width="160" relative="1" as="geometry">
            <mxPoint x="290" y="555" as="sourcePoint" />
            <mxPoint x="450" y="555" as="targetPoint" />
          </mxGeometry>
        </mxCell>
        <mxCell id="3V2Ck9-E916ixrjshscT-75" value="" style="endArrow=block;startArrow=none;endFill=0;startFill=0;endSize=8;html=1;verticalAlign=bottom;dashed=1;labelBackgroundColor=none;rounded=0;entryX=0.5;entryY=0;entryDx=0;entryDy=0;exitX=0.5;exitY=1;exitDx=0;exitDy=0;" edge="1" parent="1" source="3V2Ck9-E916ixrjshscT-45" target="3V2Ck9-E916ixrjshscT-37">
          <mxGeometry width="160" relative="1" as="geometry">
            <mxPoint x="290" y="555" as="sourcePoint" />
            <mxPoint x="450" y="555" as="targetPoint" />
          </mxGeometry>
        </mxCell>
        <mxCell id="3V2Ck9-E916ixrjshscT-76" value="" style="endArrow=block;startArrow=none;endFill=0;startFill=0;endSize=8;html=1;verticalAlign=bottom;dashed=1;labelBackgroundColor=none;rounded=0;exitX=0.5;exitY=1;exitDx=0;exitDy=0;entryX=0.5;entryY=0;entryDx=0;entryDy=0;" edge="1" parent="1" source="3V2Ck9-E916ixrjshscT-48" target="3V2Ck9-E916ixrjshscT-37">
          <mxGeometry width="160" relative="1" as="geometry">
            <mxPoint x="290" y="555" as="sourcePoint" />
            <mxPoint x="450" y="555" as="targetPoint" />
            <Array as="points">
              <mxPoint x="-160" y="445" />
              <mxPoint x="124" y="445" />
            </Array>
          </mxGeometry>
        </mxCell>
        <mxCell id="3V2Ck9-E916ixrjshscT-77" value="" style="endArrow=block;startArrow=none;endFill=0;startFill=0;endSize=8;html=1;verticalAlign=bottom;dashed=1;labelBackgroundColor=none;rounded=0;exitX=0.5;exitY=1;exitDx=0;exitDy=0;entryX=0.5;entryY=0;entryDx=0;entryDy=0;" edge="1" parent="1" source="3V2Ck9-E916ixrjshscT-63" target="3V2Ck9-E916ixrjshscT-37">
          <mxGeometry width="160" relative="1" as="geometry">
            <mxPoint x="290" y="555" as="sourcePoint" />
            <mxPoint x="450" y="555" as="targetPoint" />
            <Array as="points">
              <mxPoint x="404" y="445" />
              <mxPoint x="124" y="445" />
            </Array>
          </mxGeometry>
        </mxCell>
        <mxCell id="3V2Ck9-E916ixrjshscT-79" value="&amp;lt;&amp;lt;interface&amp;gt;&amp;gt;&lt;br&gt;IStatisticsStrategy" style="swimlane;fontStyle=0;childLayout=stackLayout;horizontal=1;startSize=30;horizontalStack=0;resizeParent=1;resizeParentMax=0;resizeLast=0;collapsible=1;marginBottom=0;whiteSpace=wrap;html=1;" vertex="1" parent="1">
          <mxGeometry x="51" y="80" width="150" height="130" as="geometry" />
        </mxCell>
        <mxCell id="3V2Ck9-E916ixrjshscT-80" value="+ ShouldApply (desiredStatistic: string): bool" style="text;html=1;strokeColor=none;fillColor=none;align=left;verticalAlign=middle;whiteSpace=wrap;rounded=0;" vertex="1" parent="3V2Ck9-E916ixrjshscT-79">
          <mxGeometry y="30" width="150" height="50" as="geometry" />
        </mxCell>
        <mxCell id="3V2Ck9-E916ixrjshscT-81" value="+ Apply(games: List&amp;lt;Game&amp;gt;):&amp;nbsp;List&amp;lt;Game&amp;gt;" style="text;html=1;strokeColor=none;fillColor=none;align=left;verticalAlign=middle;whiteSpace=wrap;rounded=0;" vertex="1" parent="3V2Ck9-E916ixrjshscT-79">
          <mxGeometry y="80" width="150" height="50" as="geometry" />
        </mxCell>
        <mxCell id="3V2Ck9-E916ixrjshscT-82" value="StatisticsHighestRating" style="swimlane;fontStyle=0;childLayout=stackLayout;horizontal=1;startSize=30;horizontalStack=0;resizeParent=1;resizeParentMax=0;resizeLast=0;collapsible=1;marginBottom=0;whiteSpace=wrap;html=1;" vertex="1" parent="1">
          <mxGeometry x="251" y="80" width="150" height="130" as="geometry" />
        </mxCell>
        <mxCell id="3V2Ck9-E916ixrjshscT-83" value="+ ShouldApply (desiredStatistic: string): bool" style="text;html=1;strokeColor=none;fillColor=none;align=left;verticalAlign=middle;whiteSpace=wrap;rounded=0;" vertex="1" parent="3V2Ck9-E916ixrjshscT-82">
          <mxGeometry y="30" width="150" height="50" as="geometry" />
        </mxCell>
        <mxCell id="3V2Ck9-E916ixrjshscT-84" value="+ Apply(games: List&amp;lt;Game&amp;gt;):&amp;nbsp;List&amp;lt;Game&amp;gt;" style="text;html=1;strokeColor=none;fillColor=none;align=left;verticalAlign=middle;whiteSpace=wrap;rounded=0;" vertex="1" parent="3V2Ck9-E916ixrjshscT-82">
          <mxGeometry y="80" width="150" height="50" as="geometry" />
        </mxCell>
        <mxCell id="3V2Ck9-E916ixrjshscT-85" value="StatisticsMostReviews" style="swimlane;fontStyle=0;childLayout=stackLayout;horizontal=1;startSize=30;horizontalStack=0;resizeParent=1;resizeParentMax=0;resizeLast=0;collapsible=1;marginBottom=0;whiteSpace=wrap;html=1;" vertex="1" parent="1">
          <mxGeometry x="-153" y="80" width="150" height="130" as="geometry" />
        </mxCell>
        <mxCell id="3V2Ck9-E916ixrjshscT-86" value="+ ShouldApply (desiredStatistic: string): bool" style="text;html=1;strokeColor=none;fillColor=none;align=left;verticalAlign=middle;whiteSpace=wrap;rounded=0;" vertex="1" parent="3V2Ck9-E916ixrjshscT-85">
          <mxGeometry y="30" width="150" height="50" as="geometry" />
        </mxCell>
        <mxCell id="3V2Ck9-E916ixrjshscT-87" value="+ Apply(games: List&amp;lt;Game&amp;gt;):&amp;nbsp;List&amp;lt;Game&amp;gt;" style="text;html=1;strokeColor=none;fillColor=none;align=left;verticalAlign=middle;whiteSpace=wrap;rounded=0;" vertex="1" parent="3V2Ck9-E916ixrjshscT-85">
          <mxGeometry y="80" width="150" height="50" as="geometry" />
        </mxCell>
        <mxCell id="3V2Ck9-E916ixrjshscT-88" value="" style="endArrow=block;startArrow=none;endFill=0;startFill=0;endSize=8;html=1;verticalAlign=bottom;dashed=1;labelBackgroundColor=none;rounded=0;entryX=0;entryY=0.75;entryDx=0;entryDy=0;exitX=1;exitY=0.75;exitDx=0;exitDy=0;" edge="1" parent="1" source="3V2Ck9-E916ixrjshscT-86" target="3V2Ck9-E916ixrjshscT-80">
          <mxGeometry width="160" relative="1" as="geometry">
            <mxPoint x="130" y="320" as="sourcePoint" />
            <mxPoint x="290" y="320" as="targetPoint" />
          </mxGeometry>
        </mxCell>
        <mxCell id="3V2Ck9-E916ixrjshscT-89" value="" style="endArrow=block;startArrow=none;endFill=0;startFill=0;endSize=8;html=1;verticalAlign=bottom;dashed=1;labelBackgroundColor=none;rounded=0;entryX=1;entryY=0.75;entryDx=0;entryDy=0;exitX=0;exitY=0.75;exitDx=0;exitDy=0;" edge="1" parent="1" source="3V2Ck9-E916ixrjshscT-83" target="3V2Ck9-E916ixrjshscT-80">
          <mxGeometry width="160" relative="1" as="geometry">
            <mxPoint x="280" y="30" as="sourcePoint" />
            <mxPoint x="334" y="30" as="targetPoint" />
          </mxGeometry>
        </mxCell>
      </root>
    </mxGraphModel>
  </diagram>
</mxfile>
